<svg viewBox="0 0 31 26" xmlns="http://www.w3.org/2000/svg">
    <path d="M27.452 11.69l-3.427 3.475V18.1L26 16.648c0 .536.035 1.466.035 2.77-.034.886-.55 1.616-1.44 1.616-.892 0-1.496-.737-1.53-1.622 0 0-.064-5.94-.04-11.5 0-2.73-2.005-5.183-5.337-5.183-2.5 0-3.368 1.66-3.368 1.66s-.858-1.66-3.355-1.66-3.32 1.66-3.32 1.66c-.588-1.04-1.696-1.683-2.896-1.68C3.265 2.7 1.87 3.403 1 4.595l2.516 2.05c.254-.428.718-.69 1.218-.69 1.276 0 1.27.957 1.266 1.754l.003 11.255h3L9 7.708c.003-.814.37-1.71 1.997-1.71 1.625 0 2 .833 2 1.846 0 1.012.083 11.176.083 11.176h3l-.068-11.11s-.008-1.956 1.652-1.956 2.322 1.084 2.322 1.916v11.01c0 2.507 2.013 5.153 4.566 5.153 2.67 0 4.425-2.566 4.422-4.94 0-1.305.01-1.377.01-2.534l2.02 1.558v-2.935l-3.552-3.494z"
          fill="#333" fill-rule="evenodd"/>
</svg>